<svg width="16" height="16" viewBox="0 0 16 16" fill="none" xmlns="http://www.w3.org/2000/svg">
<path d="M5.99992 9.16671C4.43992 9.16671 1.33325 9.94671 1.33325 11.5V12.6667H10.6666V11.5C10.6666 9.94671 7.55992 9.16671 5.99992 9.16671ZM2.89325 11.3334C3.45325 10.9467 4.80659 10.5 5.99992 10.5C7.19325 10.5 8.54659 10.9467 9.10659 11.3334H2.89325ZM5.99992 8.00004C7.28659 8.00004 8.33325 6.95337 8.33325 5.66671C8.33325 4.38004 7.28659 3.33337 5.99992 3.33337C4.71325 3.33337 3.66659 4.38004 3.66659 5.66671C3.66659 6.95337 4.71325 8.00004 5.99992 8.00004ZM5.99992 4.66671C6.55325 4.66671 6.99992 5.11337 6.99992 5.66671C6.99992 6.22004 6.55325 6.66671 5.99992 6.66671C5.44659 6.66671 4.99992 6.22004 4.99992 5.66671C4.99992 5.11337 5.44659 4.66671 5.99992 4.66671ZM10.6933 9.20671C11.4666 9.76671 11.9999 10.5134 11.9999 11.5V12.6667H14.6666V11.5C14.6666 10.1534 12.3333 9.38671 10.6933 9.20671ZM9.99992 8.00004C11.2866 8.00004 12.3333 6.95337 12.3333 5.66671C12.3333 4.38004 11.2866 3.33337 9.99992 3.33337C9.63992 3.33337 9.30659 3.42004 8.99992 3.56671C9.41992 4.16004 9.66659 4.88671 9.66659 5.66671C9.66659 6.44671 9.41992 7.17337 8.99992 7.76671C9.30659 7.91337 9.63992 8.00004 9.99992 8.00004Z" fill="#25AEF6"/>
</svg>
